HIERARCHY
ROOT Hips
{
	OFFSET -14.64140 90.27770 -84.91600
	CHANNELS 6 Xposition Yposition Zposition Zrotation Xrotation Yrotation
	JOINT Spine
	{
		OFFSET 0.00000 13.20850 -1.60436
		CHANNELS 3 Zrotation Xrotation Yrotation
		JOINT Spine1
		{
			OFFSET 0.00000 8.61716 0.00000
			CHANNELS 3 Zrotation Xrotation Yrotation
			JOINT Spine2
			{
				OFFSET 0.00000 8.61717 0.00000
				CHANNELS 3 Zrotation Xrotation Yrotation
				JOINT Spine3
				{
					OFFSET 0.00000 8.61717 0.00000
					CHANNELS 3 Zrotation Xrotation Yrotation
					JOINT Neck
					{
						OFFSET 0.00000 11.07920 1.10792
						CHANNELS 3 Zrotation Xrotation Yrotation
						JOINT Neck1
						{
							OFFSET 0.00000 7.08032 0.00000
							CHANNELS 3 Zrotation Xrotation Yrotation
							JOINT Head
							{
								OFFSET 0.00000 7.08031 0.00000
								CHANNELS 3 Zrotation Xrotation Yrotation
								End site
								{
									OFFSET 0.00000 0.00000 0.00000
								}
							}
						}
					}
					JOINT RightShoulder
					{
						OFFSET -0.01000 7.91373 5.19711
						CHANNELS 3 Zrotation Xrotation Yrotation
						JOINT RightArm
						{
							OFFSET -18.41580 0.00000 0.00000
							CHANNELS 3 Zrotation Xrotation Yrotation
							JOINT RightForeArm
							{
								OFFSET -29.11090 0.00000 0.00000
								CHANNELS 3 Zrotation Xrotation Yrotation
								JOINT RightHand
								{
									OFFSET -24.65040 0.00000 0.00000
									CHANNELS 3 Zrotation Xrotation Yrotation
									JOINT RightHandThumb1
									{
										OFFSET -5.35114 -0.85590 3.97906
										CHANNELS 3 Zrotation Xrotation Yrotation
										JOINT RightHandThumb2
										{
											OFFSET -4.52789 0.00000 0.00000
											CHANNELS 3 Zrotation Xrotation Yrotation
											JOINT RightHandThumb3
											{
												OFFSET -2.46976 0.00000 0.00000
												CHANNELS 3 Zrotation Xrotation Yrotation
												End site
												{
													OFFSET 0.00000 0.00000 0.00000
												}
											}
										}
									}
									JOINT RightHandIndex1
									{
										OFFSET -14.26970 0.00000 2.88139
										CHANNELS 3 Zrotation Xrotation Yrotation
										JOINT RightHandIndex2
										{
											OFFSET -5.48836 0.00000 0.00000
											CHANNELS 3 Zrotation Xrotation Yrotation
											JOINT RightHandIndex3
											{
												OFFSET -3.01859 0.00000 0.00000
												CHANNELS 3 Zrotation Xrotation Yrotation
												End site
												{
													OFFSET 0.00000 0.00000 0.00000
												}
											}
										}
									}
									JOINT RightHandMiddle1
									{
										OFFSET -14.26970 0.00000 -0.09147
										CHANNELS 3 Zrotation Xrotation Yrotation
										JOINT RightHandMiddle2
										{
											OFFSET -6.17441 0.00000 0.00000
											CHANNELS 3 Zrotation Xrotation Yrotation
											JOINT RightHandMiddle3
											{
												OFFSET -3.56743 0.00000 0.00000
												CHANNELS 3 Zrotation Xrotation Yrotation
												End site
												{
													OFFSET 0.00000 0.00000 0.00000
												}
											}
										}
									}
									JOINT RightHandRing1
									{
										OFFSET -12.69180 0.00000 -3.06433
										CHANNELS 3 Zrotation Xrotation Yrotation
										JOINT RightHandRing2
										{
											OFFSET -5.62556 0.00000 0.00000
											CHANNELS 3 Zrotation Xrotation Yrotation
											JOINT RightHandRing3
											{
												OFFSET -3.56744 0.00000 0.00000
												CHANNELS 3 Zrotation Xrotation Yrotation
												End site
												{
													OFFSET 0.00000 0.00000 0.00000
												}
											}
										}
									}
									JOINT RightHandPinky1
									{
										OFFSET -11.11390 0.00000 -6.03719
										CHANNELS 3 Zrotation Xrotation Yrotation
										JOINT RightHandPinky2
										{
											OFFSET -4.52789 0.00000 0.00000
											CHANNELS 3 Zrotation Xrotation Yrotation
											JOINT RightHandPinky3
											{
												OFFSET -2.46976 0.00000 0.00000
												CHANNELS 3 Zrotation Xrotation Yrotation
												End site
												{
													OFFSET 0.00000 0.00000 0.00000
												}
											}
										}
									}
								}
							}
						}
					}
					JOINT LeftShoulder
					{
						OFFSET 0.01000 7.91373 5.19711
						CHANNELS 3 Zrotation Xrotation Yrotation
						JOINT LeftArm
						{
							OFFSET 18.41580 0.00000 0.00000
							CHANNELS 3 Zrotation Xrotation Yrotation
							JOINT LeftForeArm
							{
								OFFSET 29.11090 0.00000 0.00000
								CHANNELS 3 Zrotation Xrotation Yrotation
								JOINT LeftHand
								{
									OFFSET 24.65040 0.00000 0.00000
									CHANNELS 3 Zrotation Xrotation Yrotation
									JOINT LeftHandThumb1
									{
										OFFSET 5.35114 -0.85590 3.97906
										CHANNELS 3 Zrotation Xrotation Yrotation
										JOINT LeftHandThumb2
										{
											OFFSET 4.52789 0.00000 0.00000
											CHANNELS 3 Zrotation Xrotation Yrotation
											JOINT LeftHandThumb3
											{
												OFFSET 2.46977 0.00000 0.00000
												CHANNELS 3 Zrotation Xrotation Yrotation
												End site
												{
													OFFSET 0.00000 0.00000 0.00000
												}
											}
										}
									}
									JOINT LeftHandIndex1
									{
										OFFSET 14.26970 0.00000 2.88139
										CHANNELS 3 Zrotation Xrotation Yrotation
										JOINT LeftHandIndex2
										{
											OFFSET 5.48836 0.00000 0.00000
											CHANNELS 3 Zrotation Xrotation Yrotation
											JOINT LeftHandIndex3
											{
												OFFSET 3.01859 0.00000 0.00000
												CHANNELS 3 Zrotation Xrotation Yrotation
												End site
												{
													OFFSET 0.00000 0.00000 0.00000
												}
											}
										}
									}
									JOINT LeftHandMiddle1
									{
										OFFSET 14.26970 0.00000 -0.09147
										CHANNELS 3 Zrotation Xrotation Yrotation
										JOINT LeftHandMiddle2
										{
											OFFSET 6.17440 0.00000 0.00000
											CHANNELS 3 Zrotation Xrotation Yrotation
											JOINT LeftHandMiddle3
											{
												OFFSET 3.56744 0.00000 0.00000
												CHANNELS 3 Zrotation Xrotation Yrotation
												End site
												{
													OFFSET 0.00000 0.00000 0.00000
												}
											}
										}
									}
									JOINT LeftHandRing1
									{
										OFFSET 12.69180 0.00000 -3.06433
										CHANNELS 3 Zrotation Xrotation Yrotation
										JOINT LeftHandRing2
										{
											OFFSET 5.62556 0.00000 0.00000
											CHANNELS 3 Zrotation Xrotation Yrotation
											JOINT LeftHandRing3
											{
												OFFSET 3.56744 0.00000 0.00000
												CHANNELS 3 Zrotation Xrotation Yrotation
												End site
												{
													OFFSET 0.00000 0.00000 0.00000
												}
											}
										}
									}
									JOINT LeftHandPinky1
									{
										OFFSET 11.11390 0.00000 -6.03719
										CHANNELS 3 Zrotation Xrotation Yrotation
										JOINT LeftHandPinky2
										{
											OFFSET 4.52789 0.00000 0.00000
											CHANNELS 3 Zrotation Xrotation Yrotation
											JOINT LeftHandPinky3
											{
												OFFSET 2.46976 0.00000 0.00000
												CHANNELS 3 Zrotation Xrotation Yrotation
												End site
												{
													OFFSET 0.00000 0.00000 0.00000
												}
											}
										}
									}
								}
							}
						}
					}
					JOINT pCube4
					{
						OFFSET 0.00000 10.91090 1.10792
						CHANNELS 3 Zrotation Xrotation Yrotation
						End site
						{
							OFFSET 0.00000 0.00000 0.00000
						}
					}
				}
			}
		}
	}
	JOINT RightUpLeg
	{
		OFFSET -9.98441 0.00000 0.00000
		CHANNELS 3 Zrotation Xrotation Yrotation
		JOINT RightLeg
		{
			OFFSET 0.00000 -42.11790 0.00000
			CHANNELS 3 Zrotation Xrotation Yrotation
			JOINT RightFoot
			{
				OFFSET 0.00000 -45.00020 -0.00001
				CHANNELS 3 Zrotation Xrotation Yrotation
				JOINT RightForeFoot
				{
					OFFSET 0.00000 -3.74820 0.00000
					CHANNELS 3 Zrotation Xrotation Yrotation
					JOINT RightToeBase
					{
						OFFSET 0.00000 0.06325 14.43120
						CHANNELS 3 Zrotation Xrotation Yrotation
						End site
						{
							OFFSET 0.00000 0.00000 0.00000
						}
					}
				}
			}
		}
	}
	JOINT LeftUpLeg
	{
		OFFSET 9.98441 0.00000 0.00000
		CHANNELS 3 Zrotation Xrotation Yrotation
		JOINT LeftLeg
		{
			OFFSET 0.00000 -42.11800 0.00000
			CHANNELS 3 Zrotation Xrotation Yrotation
			JOINT LeftFoot
			{
				OFFSET 0.00000 -45.00070 0.00000
				CHANNELS 3 Zrotation Xrotation Yrotation
				JOINT LeftForeFoot
				{
					OFFSET 0.00000 -3.74824 0.00000
					CHANNELS 3 Zrotation Xrotation Yrotation
					JOINT LeftToeBase
					{
						OFFSET 0.00000 0.06325 14.43110
						CHANNELS 3 Zrotation Xrotation Yrotation
						End site
						{
							OFFSET 0.00000 0.00000 0.00000
						}
					}
				}
			}
		}
	}
}
MOTION
Frames: 4
Frame Time: 0.050000
0.03590578354226984 0.045658081443901696 0.026833069319518066 0.015270447573493079 0.029297887311020718 0.024253846655228353 -2.46043540690088 -0.18046897242152138 -0.8925609731102203 -0.9251169814893702 3.7028799157259638 0.3668512842346192 -1.4094589838164282 -2.121086784221509 -1.2503202643193603 0.889178732252335 0.18304756338700728 -0.8535670837842624 1.2619436553407268 14.647773658295769 -3.5386091961535335 0.36602128024576835 1.2501515587107415 -9.353916511654718 1.5729396434237093 -13.168188190569625 -0.7520397156677269 -7.44718541642537 2.335879349252664 -15.718126164215965 68.2964522718248 -2.0898072418176086 13.197827104424526 22.47850270274315 3.051944477825088 98.3376898331322 10.99005493781128 -0.36207056850514485 -1.9392472079101648 4.538331787464949 -0.14910178421998876 -1.6150554483727246 -0.020045994917405306 -0.00873492933914101 -56.21563884882173 -0.020756743880391233 0.021918982656832876 -56.22956615371254 -38.779894502419104 0.01788899740893043 0.002817180382396585 -0.033724872501488874 0.03475388364537876 -0.006829895618452877 -0.001630911972624101 0.02851363152189479 -0.003932707689454854 -36.695630084640484 0.008729338383000376 -0.005729900425539864 0.013879130132935288 0.006542984811287964 -0.016478731011381805 0.014523979309971258 -0.0026852405618931923 0.02223007988131533 -19.73920923437814 0.010188243712483116 -0.032096280300617744 0.01813479634321857 0.036865499572942294 0.02897183618949199 0.04832733565751029 -0.020169848492152215 -0.036021898797761666 24.10099029483952 0.042027502436381044 0.008985559692549907 28.913420639144633 0.01559681965392624 0.011091143788200095 28.843941023122397 -0.0032743993200309565 -0.048885286404021504 7.283376692004961 1.801849379507841 13.209313976830359 -68.4440788952484 15.119782643822234 -12.5848265056581 -22.50984249877385 1.9328575557715713 -100.5788639489166 -1.9524254911265915 -1.7379231734565521 -1.8455337892062422 -0.5154656551999346 0.07296934232376232 -8.104127359209699 0.0008754775888221327 0.04030811175390031 44.52171328306742 -0.021676213846394867 0.04732728625544331 44.574159839979274 12.475304589809024 0.023052641126835968 -0.018075558914804626 0.022364761667292038 -0.0019101596513209436 0.03591050501781883 -0.04928692320278308 -0.008537413329303772 -0.041570459828947685 11.062125672116325 -0.045902083662147194 -0.015101711302873633 0.036414047041822536 0.024888438015885313 -0.014338498455986679 -0.003483726682981932 -0.02555254195934827 -0.04464456167964314 4.779592087395153 -0.012481692222984462 0.03399843595062956 0.04902716777818879 0.011161840801575326 0.022131565845825606 -0.04716721899826353 -0.02629216161082899 -0.019711648288594442 -5.5511673274267785 -0.01278479513039536 -0.01120521049492733 -6.770224310707713 0.03885729917997724 0.01444384095292096 -6.685863941725443 -0.008302003699959207 -0.026944408971628045 0.021108781135475183 0.0089778038581071 0.01814864286738837 8.051453561595386 3.5075257135729787 -19.225947370589672 0.020293019952915062 10.426209759602772 -0.01253631348951766 -5.588846694407708 -15.65711184757745 3.154735220893233 -0.011528574087201862 0.03246134716517757 0.03782287853709433 -0.018625830235224853 4.6769231113182705 0.001431786216318321 12.429180303172789 -8.22654740611892 6.890009949765207 -0.008452037489121773 46.34478121641213 0.03181603499939882 -4.3448746746834335 -14.716984015829468 -3.8035607661602064 0.02333604557480287 -0.04048117256806427 0.007002104144261873 0.044509154823554734 -10.699555682851669 0.006080678512294004 
-0.03521832131093294 -0.04275191109100707 -0.02522673434136088 -0.014455381172630281 0.030327449795580316 -0.034199099758741705 -2.5428694962557388 -0.15020282982797445 -0.851216345747495 -0.9738982704394658 3.704673677587075 0.3944070527940461 -1.329263227015086 -2.156540669033124 -1.236749185340969 0.7524340568959496 0.15670177733017587 -0.8826856917564069 1.2323837378709248 14.710121920091638 -3.3758126784860885 0.4478618686460831 1.3626867457030798 -8.988391794397245 1.5205661872174692 -12.935351026984863 -0.7380429621985342 -7.539230828732764 2.38769169903431 -15.504237788814075 67.89257075520626 -2.3246779763003 15.162805409888518 21.905237846690422 2.946154662063616 98.04113515651053 11.597004422802236 -0.3255323938069447 -2.1481221588815154 4.485544351744656 -0.151252287879016 -1.6148858110966926 0.026204558012473102 -0.0009349361376303833 -56.195844029684274 -0.008906325693367119 0.014398580303903145 -56.18569427868642 -38.760086495473765 0.044298961062937944 -0.04240418843552323 0.029676443227714632 -0.028507785652999145 -0.027714536804741202 0.025416548811456868 -0.015302000115544128 -0.03328839111075302 -36.66138790148421 -0.03811218396472764 -0.026496007095951103 -0.024621073863933772 -0.026877595010210507 0.010937318844941705 -0.00397024195099064 0.007990444533467748 0.013882342883659889 -19.730315150155864 0.01815603832227269 0.010454395375571551 -0.006529478370843802 0.004343026711628454 0.018503653222043198 0.0320811752997059 0.038559538949255345 -0.006592141924809613 24.07352218616288 0.03757449440596454 0.020655904409073986 28.85036221740559 -0.02242151802311457 0.02712382553516636 28.885916636062838 0.017575825024311473 0.0036952034043231884 7.277283183436342 1.7393404068170906 13.057274755540726 -67.99243368171908 15.671591544341352 -13.642936941865417 -21.39050003223193 1.3030298566665477 -99.90555529042969 -2.540305310016418 -1.8801683391918655 -1.4709623627113457 -0.5155531740174693 0.07525244067321096 -8.115776663428669 -0.0065372705427366555 0.010031315371148429 44.57991734696627 0.034573441769692945 0.022420858249254053 44.57542806453753 12.494588909360369 -0.03646678755737965 0.009045181167647605 -0.047197451062616344 -0.031851356013386595 -0.012451487159743448 -0.03182292814163875 0.010425612513835872 0.03356543615186227 11.081425556639978 0.027943127225175893 0.01919814118117809 0.010013387038191443 0.007280334274286869 0.018895941423469308 0.007960345788758096 0.005730528115624617 0.01001383020630416 4.756574371272922 -0.04576640091791805 -0.03451731766951126 0.04106764975517488 -0.013349808515444343 0.03967281886598074 -0.013343072247428292 0.033313153488090996 0.00030598314086762184 -5.574927865374786 -0.015906551231999074 0.011785267247907627 -6.6867868342100625 0.044084915041554124 0.013371766725928063 -6.6877764752518765 -0.02097243809777796 -0.023216918314087443 0.0432687293894928 0.03125580556891262 -0.004274349355498955 8.005001509367595 3.5377931926504878 -19.227930966361328 -0.03542502117628407 10.380803889067286 -0.019483890628059723 -5.666852780589675 -15.636188063711836 3.18698234507656 -0.007341531607819939 -0.019988706811533818 0.0020686963265727446 -0.00771211715782774 4.663863327557925 0.009689585466765346 12.445123005158072 -8.232551468342914 6.875629874937082 -0.026554194385107092 46.425584615966834 -0.030755210293453107 -4.35416606635039 -14.748116622748618 -3.862471370198778 -0.0025520661618391276 -0.009359250416368474 0.006147428822866612 0.010446598152556486 -10.759790391135203 -0.032343119556872545 
-0.04573955030524263 -0.00981883444965794 -0.01896623380478492 -0.018208998955344804 -0.0030677521332313157 -0.00892045959695739 -2.643889120095945 -0.18279450661343727 -0.8792115601154773 -0.9411047919447733 3.685995167658951 0.40697677219708384 -1.3374411532719181 -2.2521952321928884 -1.1731337046554688 0.6500332329319136 0.15239879209446722 -0.8674996920608288 1.1750376827458882 14.747975926676833 -3.238491407281386 0.44173936262700136 1.4643704490129488 -8.545875078908077 1.4878937587922452 -12.680687662788241 -0.6923168599082984 -7.638095524061078 2.4537906688389493 -15.251087577589027 67.95411158749332 -1.8103180886703132 17.104951175095408 21.415266581190988 3.029732191737016 97.6917785822767 12.284982860256719 -0.4290828285178251 -2.5001472269315874 4.560471654092646 -0.1741819412293921 -1.5933295479499672 0.04539686573307146 -0.027470386558029858 -56.28156715163167 -0.014146564069228724 0.007513866687388844 -56.234988594142344 -38.76116286138637 0.011950775076147146 -0.01011485494070597 -0.04200763045810769 -0.00010306391914512813 -0.021628010438445363 -0.0412664082435968 0.014296941520830228 -0.039752305084015914 -36.71447236083132 -0.022905021131315945 0.0005833615809686427 -0.009448150636536813 0.03349819193195048 0.029790480571504064 0.00735860220393609 -0.012519152785311198 0.003269293878089101 -19.740504599690613 -0.023423681319137177 0.005617995829259415 0.016275814585462633 -0.00620348001547287 0.032030077275967496 0.020692001421507688 0.0002331066697724345 -0.0024669659454537012 24.056143464198694 0.043279459038617796 -0.013786814818707487 28.895495186425094 -0.04627445945316879 -0.04196860121495519 28.84117518265342 0.008279316595080067 -0.011483404914262581 7.418969244050713 1.8001152294723886 12.851395199606031 -67.86169456716513 16.23231294292303 -14.833217488256361 -21.537085080040793 1.511852694908821 -99.42817700294474 -3.5176866889007883 -2.2164250334403715 -1.1170517507329898 -0.4750659221236102 0.03960752538049875 -8.153054586594367 -0.0034888627305861954 0.04149343765427189 44.51842841641852 -0.038961415042239086 0.026627422251285903 44.56248885376989 12.411600560052523 0.04396999823846596 -0.017217278235451862 -0.028832607979374644 -0.016423764360228774 0.0005211198668232934 -0.049353365693711834 0.04909455537647327 0.01198905725376118 11.116812644599404 0.0314045373161487 0.018361975127552922 -0.0023906229934878647 0.010586503996116388 -0.031133413865104202 0.025491702559010305 -0.026998611453636287 -0.008057547568127425 4.807429383272095 -0.010678896362529717 0.006870637083337684 -0.0026041440927302016 0.04529259510413161 0.03040760665024183 0.01519536975973865 0.02670419651329981 0.010038509211933366 -5.598345601797342 0.04544622325008545 -0.008777676411002576 -6.732659489728349 0.03879173088842619 -0.027242480748398107 -6.719081819255414 -0.03576274850293179 0.023388042826399127 0.012531612459403664 0.036624155966927016 -0.043610911500122855 8.062411344932556 3.530291127073615 -19.17711368904949 -0.027933317439265075 10.373909373636414 -0.014315906256463357 -5.632111652500389 -15.662450760530435 3.230110059530621 0.0130939694889703 0.03752911798592287 -0.0295680569489825 -0.029324155233177784 4.701591748100213 -0.03385803389051636 12.426530394369657 -8.267004115611623 6.890980425712892 -0.002761044872057568 46.32983811106965 -0.019413134016443387 -4.291174895145225 -14.741976678814801 -3.828790593978053 0.019288027518993514 0.0335576438613955 -0.0064138364137255955 0.02695720356130001 -10.761236656902758 -0.009145931967895595 
0.04124260540910998 0.04453691549468841 -0.0009326826297403213 -0.017468803540013535 -0.01668893819419234 0.01573548097647288 -2.7470393689590407 -0.23087496752273065 -0.8312243499480818 -0.9258401755634401 3.7109816550841046 0.38846140881840513 -1.3719034281251399 -2.248152591770001 -1.1955084992932763 0.5148228329918131 0.1246825599901819 -0.8681547648589222 1.069686161068649 14.896242886115258 -2.9261929274829996 0.46788425768862724 1.6422334233493452 -7.8599479864951345 1.4658837306796275 -12.485582041334098 -0.6423896079944043 -7.782397201982882 2.4600835394181297 -15.019190873203284 68.46507804111508 -1.0946959188859497 18.576229655657393 21.719808349161234 3.2870263267769406 97.14716303127685 12.920659680600965 -0.41190677006686927 -2.848605529865899 4.515436248700112 -0.13613385995666422 -1.6138003304274096 -0.02796078368595973 -0.02792834669007964 -56.231122532278484 -0.009377577382916766 -0.006918447686582756 -56.22226423238656 -38.79183101401631 -0.000198609081444212 -0.0010142391232288597 -0.035378921325846836 -0.04520711797013169 -0.02049179938102436 -0.0003742457026254156 -0.03374897446430859 -0.01579060667769506 -36.723502939760145 -0.039238826393767294 -0.007239311592379522 0.02150786502375556 -0.012819807161616147 0.014065759208111494 0.04613314649691035 0.00883147651055017 -0.03743667552504907 -19.715127013590813 -0.0019704825256291114 -0.0254987859778164 -0.02829129026181501 -0.013726678776359079 0.00937519299645795 0.045045047581245924 -0.04915585868085724 -0.005393259277542312 24.021593023843714 -0.03034615291622391 0.04740105530649632 28.875675056799732 -0.033035730724248084 -0.0221383784164839 28.883111499329246 0.014603269832029144 -0.04882993760686748 7.646224771924813 1.9010841573391266 12.739650584204592 -68.00063755635672 16.155020478468664 -16.244097789198808 -23.096298726978727 2.35047189495864 -99.20610738857427 -4.1307836633554755 -2.2673809989587164 -0.8668972769325523 -0.47481966434163325 0.046973157080937925 -8.079104901115455 0.00370678478359242 0.03966575705580562 44.613144005284816 0.047982672537826045 0.012566797720485343 44.570950601688075 12.495086846444714 -0.012055241435432589 0.031046827225754536 -0.02142835699109627 -0.03517708708269198 -0.0126913694947157 -0.036980437432885954 0.04321649402415354 -0.0020401238563636337 11.125798422984598 -0.015995605010614714 -0.04091436233807786 0.004495912590313204 -0.038135344359810135 0.021177647948484327 -0.0089672613496288 0.0434631736832154 -0.006326183752241269 4.746284410122199 -0.014737425609257277 0.0044284641830006875 -0.00047697626213304194 0.0005149948488037283 0.0016410717783207575 0.015878628284030475 -0.009144429906607819 -0.028268359677344104 -5.613539686340449 -0.02549929542962635 -0.029297913899402533 -6.691866503994007 -0.026388612880214945 0.018374787549261817 -6.721186133171573 0.01785830810768306 -0.03422681255403904 -0.045101515899668106 -0.009739543375519756 0.009286883060662653 8.024694074218162 3.447867327235478 -19.215091013826168 -0.026655509895432826 10.399883066536876 0.02141441233984051 -5.645888795386312 -15.644247211912955 3.2195107431223384 -0.03909216691079579 0.017835186153160792 0.033347908192787865 -0.04927656282530491 4.677106519840174 0.030418045378232873 12.470836866931485 -8.240808767533139 6.8698870594222035 -0.04697249823061452 46.39995963871581 0.04778210241657052 -4.343764269055253 -14.756965146788875 -3.8620626066140553 -0.014542143111057178 0.02851311878155342 -0.029331399719835286 0.02829112991836971 -10.745816087171539 0.027980339930620414 
